<?xml version="1.0" encoding="UTF-8"?>
<svg version="1.1" xmlns="http://www.w3.org/2000/svg" width="65" height="58">
<path d="M0 0 C21.45 0 42.9 0 65 0 C65 19.14 65 38.28 65 58 C43.55 58 22.1 58 0 58 C0 38.86 0 19.72 0 0 Z " fill="#111624" transform="translate(0,0)"/>
<path d="M0 0 C21.45 0 42.9 0 65 0 C65 19.14 65 38.28 65 58 C43.55 58 22.1 58 0 58 C0 38.86 0 19.72 0 0 Z M11 12 C6.4191647 18.1077804 5.05060753 25.52353433 6 33 C8.03595471 41.21322639 11.19284105 47.62640452 18.1875 52.53515625 C25.65583629 56.83184331 32.85157998 57.00949412 41.1875 55.375 C50.36220939 50.88958652 55.64668777 46.16343679 59.3125 36.5625 C61.07515996 27.42871658 59.61068832 21.02055446 55.375 12.875 C49.75045725 6.06634299 42.50169122 2.52900877 33.75 1.6875 C24.28836954 2.4759692 17.44431682 4.85728432 11 12 Z " fill="#F7F7F8" transform="translate(0,0)"/>
<path d="M0 0 C0 1.65 0 3.3 0 5 C-2.97 5 -5.94 5 -9 5 C-9 5.99 -9 6.98 -9 8 C-6.03 8 -3.06 8 0 8 C0 9.65 0 11.3 0 13 C-2.64 13 -5.28 13 -8 13 C-8 14.32 -8 15.64 -8 17 C-4.7 16.67 -1.4 16.34 2 16 C2 17.65 2 19.3 2 21 C-2.95 21.33 -7.9 21.66 -13 22 C-13.33 19.64875 -13.66 17.2975 -14 14.875 C-14.15662109 13.78227783 -14.15662109 13.78227783 -14.31640625 12.66748047 C-14.85247995 8.7458461 -15.09858168 4.95559003 -15 1 C-13.43784452 0.83013455 -11.8752548 0.66426036 -10.3125 0.5 C-9.44238281 0.4071875 -8.57226562 0.314375 -7.67578125 0.21875 C-5.10276661 0.00840136 -2.58015636 -0.03719144 0 0 Z " fill="#E2E7EB" transform="translate(30,18)"/>
<path d="M0 0 C4.95 0.33 9.9 0.66 15 1 C15 2.65 15 4.3 15 6 C12.03 5.67 9.06 5.34 6 5 C6 5.99 6 6.98 6 8 C8.31 8.33 10.62 8.66 13 9 C13 10.32 13 11.64 13 13 C10.03 13 7.06 13 4 13 C4 13.99 4 14.98 4 16 C7.3 16.33 10.6 16.66 14 17 C13.67 18.65 13.34 20.3 13 22 C11.4372038 21.85737588 9.87477304 21.71074489 8.3125 21.5625 C7.44238281 21.48128906 6.57226562 21.40007813 5.67578125 21.31640625 C3.09779359 21.01156391 0.54553705 20.50910741 -2 20 C-1.34 13.4 -0.68 6.8 0 0 Z " fill="#E4E8EC" transform="translate(36,18)"/>
<path d="M0 0 C2.31 0 4.62 0 7 0 C7 0.99 7 1.98 7 3 C4.69 3.33 2.38 3.66 0 4 C0 2.68 0 1.36 0 0 Z " fill="#21262D" transform="translate(22,31)"/>
<path d="M0 0 C2.64 0 5.28 0 8 0 C8 0.99 8 1.98 8 3 C5.36 3 2.72 3 0 3 C0 2.01 0 1.02 0 0 Z " fill="#20242C" transform="translate(21,23)"/>
<path d="M0 0 C1.98 0 3.96 0 6 0 C6 0.99 6 1.98 6 3 C4.02 3 2.04 3 0 3 C0 2.01 0 1.02 0 0 Z " fill="#F0F6FC" transform="translate(23,27)"/>
</svg>
